<svg width="27" height="30" viewBox="0 0 27 30" fill="none" xmlns="http://www.w3.org/2000/svg">
<g clip-path="url(#clip0_58_873)">
<path d="M8.5 8.67188V6.32812C8.5 5.94141 8.81641 5.625 9.20312 5.625H11.5469C11.9336 5.625 12.25 5.94141 12.25 6.32812V8.67188C12.25 9.05859 11.9336 9.375 11.5469 9.375H9.20312C8.81641 9.375 8.5 9.05859 8.5 8.67188ZM16.7031 9.375H19.0469C19.4336 9.375 19.75 9.05859 19.75 8.67188V6.32812C19.75 5.94141 19.4336 5.625 19.0469 5.625H16.7031C16.3164 5.625 16 5.94141 16 6.32812V8.67188C16 9.05859 16.3164 9.375 16.7031 9.375ZM9.20312 15H11.5469C11.9336 15 12.25 14.6836 12.25 14.2969V11.9531C12.25 11.5664 11.9336 11.25 11.5469 11.25H9.20312C8.81641 11.25 8.5 11.5664 8.5 11.9531V14.2969C8.5 14.6836 8.81641 15 9.20312 15ZM16.7031 15H19.0469C19.4336 15 19.75 14.6836 19.75 14.2969V11.9531C19.75 11.5664 19.4336 11.25 19.0469 11.25H16.7031C16.3164 11.25 16 11.5664 16 11.9531V14.2969C16 14.6836 16.3164 15 16.7031 15ZM12.25 19.9219V17.5781C12.25 17.1914 11.9336 16.875 11.5469 16.875H9.20312C8.81641 16.875 8.5 17.1914 8.5 17.5781V19.9219C8.5 20.3086 8.81641 20.625 9.20312 20.625H11.5469C11.9336 20.625 12.25 20.3086 12.25 19.9219ZM16.7031 20.625H19.0469C19.4336 20.625 19.75 20.3086 19.75 19.9219V17.5781C19.75 17.1914 19.4336 16.875 19.0469 16.875H16.7031C16.3164 16.875 16 17.1914 16 17.5781V19.9219C16 20.3086 16.3164 20.625 16.7031 20.625ZM27.25 27.8906V30H1V27.8906C1 27.5039 1.31641 27.1875 1.70312 27.1875H2.8457V1.40625C2.8457 0.626953 3.47266 0 4.25195 0H23.998C24.7773 0 25.4043 0.626953 25.4043 1.40625V27.1875H26.5469C26.9336 27.1875 27.25 27.5039 27.25 27.8906ZM5.6582 27.1289H12.25V23.2031C12.25 22.8164 12.5664 22.5 12.9531 22.5H15.2969C15.6836 22.5 16 22.8164 16 23.2031V27.1289H22.5918V2.87109L5.6875 2.8125L5.6582 27.1289Z" fill="#525252"/>
</g>
<defs>
<clipPath id="clip0_58_873">
<rect width="26.25" height="30" fill="white"/>
</clipPath>
</defs>
</svg>
