<svg width="30" height="30" viewBox="0 0 30 30" fill="none" xmlns="http://www.w3.org/2000/svg">
<path d="M14.875 13.625C16.3815 12.1243 18.4158 11.2735 20.5421 11.2548C22.6684 11.2361 24.7174 12.051 26.25 13.525V6.25C26.25 5.58696 25.9866 4.95107 25.5178 4.48223C25.0489 4.01339 24.413 3.75 23.75 3.75H18.525C18 2.3 16.625 1.25 15 1.25C13.375 1.25 12 2.3 11.475 3.75H6.25C4.875 3.75 3.75 4.875 3.75 6.25V23.75C3.75 24.413 4.01339 25.0489 4.48223 25.5178C4.95107 25.9866 5.58696 26.25 6.25 26.25H16.325C15.8125 25.925 15.325 25.5625 14.875 25.125C13.356 23.5968 12.5034 21.5297 12.5034 19.375C12.5034 17.2203 13.356 15.1532 14.875 13.625ZM15 3.75C15.6875 3.75 16.25 4.3125 16.25 5C16.25 5.6875 15.6875 6.25 15 6.25C14.3125 6.25 13.75 5.6875 13.75 5C13.75 4.3125 14.3125 3.75 15 3.75ZM25.3875 22.375C25.9375 21.5125 26.25 20.475 26.25 19.375C26.25 16.25 23.75 13.75 20.625 13.75C17.5 13.75 15 16.25 15 19.375C15 22.5 17.5 25 20.625 25C21.7125 25 22.7375 24.6875 23.6 24.15L27.5 27.9875L29.2375 26.25L25.3875 22.375ZM20.625 22.5C19.7962 22.5 19.0013 22.1708 18.4153 21.5847C17.8292 20.9987 17.5 20.2038 17.5 19.375C17.5 18.5462 17.8292 17.7513 18.4153 17.1653C19.0013 16.5792 19.7962 16.25 20.625 16.25C21.4538 16.25 22.2487 16.5792 22.8347 17.1653C23.4208 17.7513 23.75 18.5462 23.75 19.375C23.75 20.2038 23.4208 20.9987 22.8347 21.5847C22.2487 22.1708 21.4538 22.5 20.625 22.5Z" fill="#525252"/>
</svg>
