<svg width="32" height="32" viewBox="0 0 32 32" fill="none" xmlns="http://www.w3.org/2000/svg">
<path d="M26.9339 25.4187L19.7922 18.2769C20.9004 16.8442 21.4999 15.0925 21.4999 13.25C21.4999 11.0445 20.6392 8.97648 19.0827 7.41724C17.5262 5.858 15.4527 5 13.25 5C11.0472 5 8.97373 5.86075 7.41724 7.41724C5.858 8.97373 5 11.0445 5 13.25C5 15.4527 5.86075 17.5262 7.41724 19.0827C8.97373 20.6419 11.0445 21.4999 13.25 21.4999C15.0925 21.4999 16.8414 20.9004 18.2742 19.7949L25.4159 26.9339C25.4369 26.9549 25.4617 26.9715 25.4891 26.9828C25.5165 26.9942 25.5458 27 25.5754 27C25.605 27 25.6344 26.9942 25.6617 26.9828C25.6891 26.9715 25.714 26.9549 25.7349 26.9339L26.9339 25.7377C26.9549 25.7167 26.9715 25.6919 26.9828 25.6645C26.9942 25.6371 27 25.6078 27 25.5782C27 25.5485 26.9942 25.5192 26.9828 25.4918C26.9715 25.4645 26.9549 25.4396 26.9339 25.4187ZM17.6059 17.6059C16.44 18.7692 14.8945 19.4099 13.25 19.4099C11.6055 19.4099 10.06 18.7692 8.89398 17.6059C7.73074 16.44 7.08999 14.8945 7.08999 13.25C7.08999 11.6055 7.73074 10.0572 8.89398 8.89398C10.06 7.73074 11.6055 7.08999 13.25 7.08999C14.8945 7.08999 16.4427 7.72799 17.6059 8.89398C18.7692 10.06 19.4099 11.6055 19.4099 13.25C19.4099 14.8945 18.7692 16.4427 17.6059 17.6059Z" fill="white"/>
</svg>
