<svg width="69" height="78" viewBox="0 0 69 78" fill="none" xmlns="http://www.w3.org/2000/svg">
<g clip-path="url(#clip0_58_1084)">
<path d="M49.1933 48.8413L34.5 63.3749L19.8067 48.8413C8.79442 49.3136 0 58.2257 0 69.2249V70.6874C0 74.7245 3.31138 77.9999 7.39286 77.9999H61.6071C65.6886 77.9999 69 74.7245 69 70.6874V69.2249C69 58.2257 60.2056 49.3136 49.1933 48.8413ZM2.09464 12.1569L3.08036 12.3855V21.2823C2.00223 21.9222 1.23214 23.0343 1.23214 24.3749C1.23214 25.6546 1.94062 26.721 2.94174 27.3761L0.539062 36.8671C0.277232 37.9183 0.8625 38.9999 1.7096 38.9999H8.14754C8.99464 38.9999 9.57991 37.9183 9.31808 36.8671L6.9154 27.3761C7.91652 26.721 8.625 25.6546 8.625 24.3749C8.625 23.0343 7.85491 21.9222 6.77679 21.2823V13.269L16.942 15.6913C15.6174 18.3116 14.7857 21.2366 14.7857 24.3749C14.7857 35.1456 23.6109 43.8749 34.5 43.8749C45.3891 43.8749 54.2143 35.1456 54.2143 24.3749C54.2143 21.2366 53.398 18.3116 52.058 15.6913L66.89 12.1569C69.6931 11.4866 69.6931 8.02842 66.89 7.35811L37.565 0.350293C35.5627 -0.121973 33.4527 -0.121973 31.4504 0.350293L2.09464 7.34287C-0.69308 8.01318 -0.69308 11.4866 2.09464 12.1569Z" fill="#525252"/>
</g>
<defs>
<clipPath id="clip0_58_1084">
<rect width="69" height="78" fill="white"/>
</clipPath>
</defs>
</svg>
