<svg width="234" height="234" viewBox="0 0 234 234" fill="none" xmlns="http://www.w3.org/2000/svg">
<path d="M207.063 51.5623L119.313 22.3123C117.811 21.8123 116.189 21.8123 114.687 22.3123L27.0782 51.5166L27.069 51.5193L26.9374 51.5632C26.9118 51.5723 26.889 51.586 26.8643 51.5952C26.5472 51.704 26.2382 51.8347 25.9393 51.9864C25.9054 52.0047 25.8698 52.0184 25.836 52.0367C25.5404 52.1945 25.2561 52.3726 24.985 52.5696C24.9255 52.6126 24.8667 52.6564 24.8086 52.7012C24.5445 52.9008 24.294 53.1179 24.059 53.3511C24.038 53.374 24.0188 53.3977 23.9978 53.4197C23.7814 53.6451 23.5796 53.8842 23.3936 54.1354C23.3552 54.1866 23.3159 54.2359 23.2793 54.288C23.0874 54.5592 22.9143 54.8433 22.7611 55.1381C22.7373 55.1838 22.7172 55.2295 22.6943 55.2752C22.5514 55.5644 22.4277 55.8627 22.3241 56.1682C22.315 56.1966 22.3022 56.224 22.2931 56.2532C22.1899 56.5778 22.1095 56.9092 22.0527 57.245C22.0408 57.3154 22.0307 57.3858 22.0207 57.4552C21.9681 57.8011 21.9403 58.1502 21.9375 58.5V131.625C21.9375 133.564 22.7079 135.424 24.0793 136.796C25.4506 138.167 27.3106 138.938 29.25 138.938C31.1894 138.938 33.0494 138.167 34.4207 136.796C35.7921 135.424 36.5625 133.564 36.5625 131.625V68.6461L67.2613 78.879C59.1232 92.0201 56.5191 107.849 60.0185 122.904C63.5179 137.96 72.836 151.018 85.9356 159.222C68.4921 165.818 53.6072 177.806 43.4454 193.443C42.9078 194.247 42.5351 195.15 42.3489 196.099C42.1627 197.049 42.1667 198.025 42.3607 198.973C42.5546 199.921 42.9347 200.821 43.4789 201.62C44.0231 202.42 44.7205 203.104 45.5309 203.632C46.3412 204.161 47.2483 204.523 48.1997 204.698C49.151 204.874 50.1277 204.858 51.0731 204.654C52.0185 204.449 52.9139 204.058 53.7074 203.505C54.5009 202.952 55.1767 202.246 55.6957 201.43C62.339 191.224 71.4254 182.838 82.1306 177.033C92.8357 171.228 104.821 168.188 116.999 168.188C129.176 168.188 141.162 171.228 151.867 177.033C162.572 182.838 171.658 191.224 178.302 201.43C178.824 202.24 179.5 202.939 180.293 203.486C181.086 204.034 181.979 204.419 182.922 204.62C183.864 204.821 184.837 204.834 185.784 204.658C186.731 204.482 187.634 204.12 188.442 203.594C189.249 203.068 189.944 202.387 190.487 201.592C191.03 200.796 191.411 199.901 191.607 198.957C191.803 198.014 191.811 197.041 191.63 196.095C191.449 195.149 191.083 194.247 190.553 193.443C180.391 177.806 165.507 165.819 148.063 159.223C161.163 151.019 170.482 137.961 173.981 122.905C177.48 107.849 174.876 92.0202 166.738 78.879L207.063 65.4377C208.519 64.9526 209.786 64.0215 210.683 62.7763C211.581 61.5311 212.064 60.035 212.064 58.5C212.064 56.965 211.581 55.4689 210.683 54.2237C209.786 52.9785 208.519 52.0474 207.063 51.5623ZM160.875 109.688C160.877 116.624 159.234 123.462 156.081 129.64C152.929 135.819 148.356 141.162 142.739 145.231C137.122 149.3 130.62 151.979 123.766 153.049C116.913 154.119 109.904 153.548 103.313 151.384C96.7232 149.221 90.74 145.525 85.8545 140.601C80.969 135.677 77.3206 129.665 75.2085 123.059C73.0964 116.452 72.5809 109.438 73.7042 102.593C74.8275 95.7486 77.5576 89.2677 81.6706 83.6824L114.687 94.6877C116.189 95.1877 117.811 95.1877 119.313 94.6877L152.329 83.6824C157.887 91.2133 160.882 100.328 160.875 109.688ZM152.376 68.2503C152.358 68.2567 152.339 68.2613 152.321 68.2686L117 80.0417L81.6779 68.2686C81.6596 68.2613 81.6413 68.2558 81.623 68.2503L52.3749 58.5L117 36.9583L181.626 58.5L152.376 68.2503Z" fill="#42A7C3"/>
</svg>
