<svg width="30" height="30" viewBox="0 0 30 30" fill="none" xmlns="http://www.w3.org/2000/svg">
<path d="M12.5 20V18.75H3.7625L3.75 23.75C3.75 25.1375 4.8625 26.25 6.25 26.25H23.75C25.1375 26.25 26.25 25.1375 26.25 23.75V18.75H17.5V20H12.5ZM25 8.75H19.9875V6.25L17.4875 3.75H12.4875L9.9875 6.25V8.75H5C3.625 8.75 2.5 9.875 2.5 11.25V15C2.5 16.3875 3.6125 17.5 5 17.5H12.5V15H17.5V17.5H25C26.375 17.5 27.5 16.375 27.5 15V11.25C27.5 9.875 26.375 8.75 25 8.75ZM17.5 8.75H12.5V6.25H17.5V8.75Z" fill="#525252"/>
</svg>
