<svg width="30" height="30" viewBox="0 0 30 30" fill="none" xmlns="http://www.w3.org/2000/svg">
<path d="M23.9375 2H4.4375C3.09687 2 2 3.09688 2 4.4375V25.5625C2 26.9031 3.09687 28 4.4375 28H23.9375C25.5926 28 26.0741 27.037 26.0741 25.5926V20.2963V15V9.7037V4.40741C26.0741 3.06678 25.2781 2 23.9375 2ZM23.1852 25.1111H4.88889V4.88889H23.1852V25.1111ZM8.5 16.625H19.875V18.25H8.5V16.625ZM8.5 19.875H19.875V21.5H8.5V19.875ZM10.125 9.3125C10.1251 8.9923 10.1883 8.67525 10.3109 8.37946C10.4336 8.08367 10.6132 7.81493 10.8397 7.58859C11.0662 7.36225 11.3351 7.18273 11.631 7.06029C11.9268 6.93786 12.2439 6.87489 12.5641 6.875C12.8843 6.87511 13.2014 6.93828 13.4972 7.06092C13.793 7.18355 14.0617 7.36325 14.288 7.58974C14.5144 7.81623 14.6939 8.08509 14.8163 8.38096C14.9388 8.67683 15.0017 8.99392 15.0016 9.31413C15.0014 9.96081 14.7443 10.5809 14.2869 11.038C13.8295 11.4952 13.2092 11.7518 12.5625 11.7516C11.9158 11.7514 11.2957 11.4943 10.8386 11.0369C10.3815 10.5795 10.1248 9.95918 10.125 9.3125ZM14.1875 11.75H10.9375C9.59687 11.75 8.5 12.4812 8.5 13.375V15H16.625V13.375C16.625 12.4812 15.5281 11.75 14.1875 11.75Z" fill="#525252"/>
</svg>
