<svg width="197" height="224" viewBox="0 0 197 224" fill="none" xmlns="http://www.w3.org/2000/svg">
<g clip-path="url(#clip0_2_6)">
<path d="M56.5 64.75V47.25C56.5 44.3625 58.8625 42 61.75 42H79.25C82.1375 42 84.5 44.3625 84.5 47.25V64.75C84.5 67.6375 82.1375 70 79.25 70H61.75C58.8625 70 56.5 67.6375 56.5 64.75ZM117.75 70H135.25C138.138 70 140.5 67.6375 140.5 64.75V47.25C140.5 44.3625 138.138 42 135.25 42H117.75C114.862 42 112.5 44.3625 112.5 47.25V64.75C112.5 67.6375 114.862 70 117.75 70ZM61.75 112H79.25C82.1375 112 84.5 109.638 84.5 106.75V89.25C84.5 86.3625 82.1375 84 79.25 84H61.75C58.8625 84 56.5 86.3625 56.5 89.25V106.75C56.5 109.638 58.8625 112 61.75 112ZM117.75 112H135.25C138.138 112 140.5 109.638 140.5 106.75V89.25C140.5 86.3625 138.138 84 135.25 84H117.75C114.862 84 112.5 86.3625 112.5 89.25V106.75C112.5 109.638 114.862 112 117.75 112ZM84.5 148.75V131.25C84.5 128.362 82.1375 126 79.25 126H61.75C58.8625 126 56.5 128.362 56.5 131.25V148.75C56.5 151.638 58.8625 154 61.75 154H79.25C82.1375 154 84.5 151.638 84.5 148.75ZM117.75 154H135.25C138.138 154 140.5 151.638 140.5 148.75V131.25C140.5 128.362 138.138 126 135.25 126H117.75C114.862 126 112.5 128.362 112.5 131.25V148.75C112.5 151.638 114.862 154 117.75 154ZM196.5 208.25V224H0.5V208.25C0.5 205.362 2.8625 203 5.75 203H14.2812V10.5C14.2812 4.68125 18.9625 0 24.7812 0H172.219C178.037 0 182.719 4.68125 182.719 10.5V203H191.25C194.138 203 196.5 205.362 196.5 208.25ZM35.2812 202.562H84.5V173.25C84.5 170.362 86.8625 168 89.75 168H107.25C110.138 168 112.5 170.362 112.5 173.25V202.562H161.719V21.4375L35.5 21L35.2812 202.562Z" fill="white"/>
</g>
<defs>
<clipPath id="clip0_2_6">
<rect width="196" height="224" fill="white" transform="translate(0.5)"/>
</clipPath>
</defs>
</svg>
